<svg width="3719" height="3719" viewBox="0 0 3719 3719" fill="none" xmlns="http://www.w3.org/2000/svg">
<g clip-path="url(#clip0_8_2)" filter="url(#filter0_f_8_2)">
<rect width="3618.6" height="3618.6" transform="translate(50 50)" fill="#002E63"/>
<path d="M1856.5 2159.7C2023.62 2159.7 2159.1 2024.22 2159.1 1857.1C2159.1 1689.98 2023.62 1554.5 1856.5 1554.5C1689.38 1554.5 1553.9 1689.98 1553.9 1857.1C1553.9 2024.22 1689.38 2159.7 1856.5 2159.7Z" fill="#00D8FF"/>
<path d="M1856.5 1241.9C2262.7 1241.9 2640.1 1300.2 2924.6 1398.1C3267.4 1516.1 3478.2 1695 3478.2 1857C3478.2 2025.8 3254.8 2215.9 2886.7 2337.8C2608.4 2430 2242.1 2478.2 1856.5 2478.2C1461.1 2478.2 1086.8 2433 805.3 2336.8C449.2 2215.1 234.7 2022.6 234.7 1857C234.7 1696.3 436 1518.8 774 1401C1059.6 1301.5 1446.3 1241.9 1856.5 1241.9V1241.9Z" stroke="#00D8FF" stroke-width="144.746" stroke-miterlimit="10"/>
<path d="M1321 1551.3C1523.9 1199.4 1763 901.6 1990 704.1C2263.5 466.1 2523.8 372.9 2664.1 453.8C2810.3 538.1 2863.4 826.6 2785.1 1206.5C2725.9 1493.7 2584.7 1835 2392 2169.1C2194.5 2511.6 1968.3 2813.3 1744.4 3009.1C1461.1 3256.8 1187.1 3346.4 1043.7 3263.7C904.5 3183.4 851.3 2920.4 918 2568.7C974.4 2271.3 1116 1906.6 1321 1551.3V1551.3Z" stroke="#00D8FF" stroke-width="144.746" stroke-miterlimit="10"/>
<path d="M1321.5 2169.8C1118 1818.2 979.4 1462.4 921.6 1167.1C852 811.3 901.2 539.2 1041.4 458.1C1187.5 373.5 1463.9 471.6 1753.9 729.1C1973.2 923.8 2198.3 1216.6 2391.5 1550.4C2589.6 1892.6 2738.1 2239.2 2795.8 2530.9C2868.9 2900.1 2809.7 3182.2 2666.4 3265.1C2527.3 3345.6 2272.9 3260.4 2001.5 3026.9C1772.3 2829.6 1527 2524.8 1321.5 2169.8V2169.8Z" stroke="#00D8FF" stroke-width="144.746" stroke-miterlimit="10"/>
</g>
<defs>
<filter id="filter0_f_8_2" x="0" y="0" width="3718.6" height="3718.6" filterUnits="userSpaceOnUse" color-interpolation-filters="sRGB">
<feFlood flood-opacity="0" result="BackgroundImageFix"/>
<feBlend mode="normal" in="SourceGraphic" in2="BackgroundImageFix" result="shape"/>
<feGaussianBlur stdDeviation="25" result="effect1_foregroundBlur_8_2"/>
</filter>
<clipPath id="clip0_8_2">
<rect width="3618.6" height="3618.6" fill="white" transform="translate(50 50)"/>
</clipPath>
</defs>
</svg>
